<svg xmlns="http://www.w3.org/2000/svg" version="1.0" preserveAspectRatio="xMidYMid meet" viewBox="131 73.34 656.45 674.66">
<metadata>
Created by potrace 1.10, written by Peter Selinger 2001-2011
</metadata>
<g transform="translate(0.000000,852.000000) scale(0.100000,-0.100000)" fill="#000000" stroke="none">
<path d="M4501 7776 c-7 -8 -11 -36 -9 -63 l3 -48 85 0 85 0 3 -138 c2 -111 0 -142 -13 -160 -11 -16 -15 -50 -15 -143 0 -139 -3 -134 91 -139 75 -4 77 2 67 148 -6 97 -5 124 7 147 11 21 15 63 15 147 l0 119 87 -1 c84 0 86 0 89 25 2 14 6 40 10 58 l6 32 -154 0 c-85 0 -158 4 -163 9 -6 5 -49 11 -96 15 -68 5 -89 3 -98 -8z"/>
<path d="M2835 7279 c-16 -10 -41 -23 -54 -29 -35 -15 -109 -97 -127 -138 -31 -75 -11 -218 43 -301 74 -115 97 -139 177 -179 59 -30 79 -31 163 -13 40 9 70 22 84 37 12 13 28 24 34 24 18 0 105 97 105 117 0 10 7 27 15 37 21 27 21 149 0 166 -8 7 -15 23 -15 36 0 26 -37 94 -51 94 -5 0 -9 7 -9 15 0 21 -76 102 -122 131 -32 21 -50 24 -125 23 -69 0 -95 -5 -118 -20z m125 -127 c41 -28 114 -113 144 -167 36 -66 45 -161 18 -190 -38 -41 -132 -74 -132 -46 0 5 -10 13 -22 17 -22 6 -97 81 -98 96 0 4 -13 26 -28 50 -31 46 -62 123 -62 151 0 17 23 60 45 83 27 28 99 32 135 6z"/>
<path d="M6421 7188 c-11 -24 -36 -63 -56 -88 -19 -25 -38 -52 -42 -60 -3 -8 -19 -31 -35 -51 -15 -20 -28 -41 -28 -46 0 -5 -13 -22 -30 -38 -16 -16 -30 -33 -30 -38 0 -10 -31 -52 -82 -111 -21 -24 -38 -50 -38 -59 0 -15 68 -76 100 -91 8 -3 33 -20 55 -37 22 -16 56 -40 75 -53 19 -13 46 -35 60 -49 14 -15 34 -27 46 -27 23 0 84 58 84 81 0 9 -32 35 -72 59 -40 23 -92 58 -116 77 -41 34 -42 36 -27 57 8 11 29 42 46 69 17 26 34 47 38 47 11 0 80 -53 116 -90 17 -16 37 -30 45 -30 23 1 92 69 88 88 -2 9 -12 19 -23 22 -11 3 -37 17 -56 33 -20 15 -40 27 -46 27 -16 0 -53 36 -53 52 0 8 11 25 24 37 13 13 27 34 30 47 10 39 44 29 117 -36 37 -33 72 -60 77 -60 5 0 16 -10 24 -21 12 -19 17 -20 36 -10 12 6 22 21 22 32 0 11 7 22 15 25 25 10 17 49 -15 72 -16 12 -32 22 -35 22 -3 0 -39 24 -80 53 -42 28 -85 57 -97 64 -12 6 -25 18 -30 27 -8 14 -62 46 -79 46 -4 0 -17 -19 -28 -42z"/>
<path d="M4376 5978 c-11 -6 -60 -15 -110 -20 -53 -5 -97 -15 -107 -24 -8 -7 -30 -14 -47 -14 -17 0 -34 -4 -37 -10 -3 -5 -14 -10 -24 -10 -10 0 -24 -7 -31 -15 -7 -8 -21 -15 -32 -15 -40 0 -308 -147 -308 -169 0 -4 -19 -18 -41 -30 -51 -29 -273 -249 -317 -314 -17 -26 -36 -53 -42 -60 -57 -68 -200 -368 -200 -420 0 -10 -4 -25 -9 -35 -22 -42 -41 -112 -42 -153 -2 -115 -2 -520 0 -564 1 -44 9 -69 42 -137 5 -10 9 -28 9 -40 0 -45 142 -361 174 -388 9 -7 16 -17 16 -22 0 -16 125 -168 202 -246 95 -95 298 -251 348 -267 10 -3 52 -24 91 -46 39 -21 79 -39 88 -39 9 0 36 -9 60 -20 24 -11 54 -20 68 -20 13 0 31 -7 39 -15 9 -8 25 -15 38 -15 12 0 26 -4 31 -9 15 -14 118 -22 350 -27 129 -3 218 -1 230 5 11 6 45 12 75 15 78 6 118 16 131 32 6 8 26 14 43 14 17 0 40 6 51 14 11 7 36 17 55 21 19 4 73 27 120 51 47 24 90 44 96 44 6 0 19 9 30 21 10 12 36 30 57 40 20 11 37 24 37 29 0 5 15 17 33 26 38 20 282 257 302 294 7 14 22 34 32 45 26 28 89 124 108 166 9 19 27 54 40 79 13 25 24 51 24 59 1 8 15 43 31 78 17 34 30 74 30 87 0 14 4 27 9 30 24 15 42 181 47 420 4 185 3 221 -10 235 -9 10 -13 26 -9 40 7 27 -17 161 -29 161 -4 0 -8 12 -8 26 0 14 -13 55 -30 91 -16 35 -30 71 -30 78 0 14 -38 95 -49 105 -4 3 -16 25 -29 50 -35 68 -47 88 -76 123 -15 18 -35 46 -46 62 -30 46 -250 264 -295 292 -22 14 -45 31 -50 38 -26 32 -267 165 -300 165 -7 0 -33 11 -59 25 -26 14 -59 25 -74 25 -15 0 -38 7 -50 16 -15 10 -54 18 -105 21 -45 3 -91 12 -102 19 -25 18 -409 20 -439 2z m423 -107 c20 -5 69 -14 109 -20 40 -6 80 -15 90 -20 9 -5 48 -19 85 -31 111 -37 219 -87 259 -119 20 -17 39 -31 42 -31 3 0 43 -28 88 -62 234 -174 437 -445 508 -679 13 -41 31 -100 41 -131 11 -32 19 -72 19 -91 0 -18 6 -57 13 -87 18 -73 21 -229 6 -332 -6 -46 -13 -94 -14 -108 -4 -55 -51 -224 -80 -295 -19 -44 -73 -163 -83 -182 -19 -33 -83 -121 -96 -132 -9 -8 -16 -19 -16 -25 0 -14 -172 -192 -255 -264 -74 -65 -120 -97 -165 -118 -19 -9 -42 -22 -50 -29 -27 -23 -203 -93 -310 -124 -58 -17 -145 -35 -195 -41 -118 -13 -325 -13 -400 1 -33 6 -71 12 -85 14 -14 1 -45 8 -70 14 -25 7 -63 16 -85 21 -22 5 -64 20 -92 34 -29 14 -61 26 -70 26 -10 0 -36 11 -58 25 -22 13 -51 30 -65 37 -128 65 -333 242 -428 369 -77 103 -112 153 -112 161 0 5 -11 24 -25 42 -13 17 -38 65 -56 106 -104 249 -131 413 -117 710 10 191 11 203 32 265 9 28 25 79 36 115 21 71 84 219 97 229 4 3 16 22 26 41 22 44 59 99 85 125 11 11 37 43 57 70 58 76 115 132 146 145 16 7 31 20 34 30 17 53 303 223 450 267 28 8 55 19 60 23 15 12 140 40 183 41 20 0 62 6 92 13 62 13 312 11 369 -3z"/>
<path d="M1488 5818 c-19 -30 -40 -120 -33 -139 5 -13 68 -34 140 -46 17 -3 37 -11 45 -18 15 -13 49 -21 135 -33 45 -6 50 -10 50 -32 0 -20 -5 -25 -25 -26 -65 -3 -148 -16 -175 -29 -30 -14 -82 -24 -142 -28 -17 -1 -35 -5 -39 -9 -4 -5 -19 -8 -33 -8 -44 -1 -101 -71 -101 -125 0 -13 8 -25 18 -28 9 -4 51 -18 92 -32 41 -13 85 -25 97 -25 12 0 24 -4 28 -9 7 -12 64 -41 79 -41 6 0 24 -7 39 -15 15 -8 34 -12 41 -9 8 3 17 1 21 -5 3 -6 17 -11 29 -11 13 0 29 -7 36 -15 7 -8 20 -15 30 -15 10 0 23 -7 30 -15 7 -8 22 -15 33 -15 11 0 26 -8 33 -17 12 -17 13 -17 19 2 4 11 11 27 16 35 18 31 39 83 39 100 0 22 -31 50 -56 50 -26 1 -111 24 -120 33 -4 4 -17 7 -29 7 -12 0 -25 3 -29 8 -4 4 -40 12 -79 17 -67 9 -72 12 -72 35 0 24 3 25 92 35 50 6 95 13 99 18 4 4 23 7 41 7 19 0 48 7 64 16 17 8 37 13 45 10 22 -9 127 22 142 41 6 9 12 25 12 34 0 10 5 21 10 24 16 10 11 51 -8 68 -10 10 -30 17 -43 17 -14 0 -29 4 -35 9 -5 5 -43 19 -84 31 -41 12 -82 26 -90 31 -32 19 -83 39 -101 39 -10 0 -21 5 -24 10 -3 6 -17 10 -30 10 -13 0 -27 5 -30 10 -3 6 -15 10 -25 10 -22 0 -82 30 -93 48 -13 19 -43 14 -59 -10z"/>
<path d="M7527 5641 c-53 -48 -67 -80 -67 -155 0 -36 -4 -68 -10 -71 -5 -3 -10 -22 -10 -41 0 -24 -8 -43 -25 -59 -46 -47 -106 -24 -126 48 -14 49 -13 72 8 103 8 13 13 33 11 46 -3 20 -9 23 -57 26 -76 4 -91 -12 -91 -99 0 -37 5 -71 10 -74 6 -3 10 -19 10 -35 0 -43 14 -72 57 -117 59 -61 88 -73 172 -68 130 7 200 82 185 197 -11 86 30 178 80 178 46 0 61 -33 58 -131 l-2 -89 60 0 60 0 0 100 c0 80 -3 102 -15 106 -8 4 -15 19 -15 35 0 33 -50 95 -89 112 -14 6 -57 13 -96 16 -69 6 -70 6 -108 -28z"/>
<path d="M1489 4565 c-15 -8 -29 -21 -33 -30 -3 -8 -14 -15 -24 -15 -22 0 -57 -36 -67 -67 -3 -13 -11 -23 -16 -23 -5 0 -9 -20 -9 -45 0 -25 -4 -45 -10 -45 -5 0 -10 -9 -10 -19 0 -11 5 -23 10 -26 6 -3 10 -22 10 -41 0 -34 32 -97 62 -122 52 -43 110 -62 188 -62 43 0 89 4 102 9 50 21 128 111 128 150 0 10 7 21 15 25 11 4 15 20 15 56 0 90 -74 203 -166 252 -42 22 -156 24 -195 3z m139 -120 c62 -19 80 -43 89 -113 7 -61 -8 -89 -67 -128 -31 -21 -48 -25 -75 -21 -40 7 -81 35 -107 75 -34 52 -1 153 62 188 32 17 36 17 98 -1z"/>
<path d="M7531 4566 c-7 -8 -22 -17 -34 -20 -12 -3 -45 -31 -72 -63 l-50 -57 -4 -89 c-1 -48 0 -98 3 -111 7 -30 92 -119 133 -140 44 -22 177 -21 218 2 65 36 91 56 101 76 6 12 20 39 31 61 27 56 22 183 -10 217 -12 13 -28 36 -34 51 -7 15 -19 27 -27 27 -7 0 -19 7 -26 15 -7 8 -20 15 -30 15 -10 0 -23 7 -30 15 -17 20 -152 21 -169 1z m159 -131 c43 -22 60 -53 60 -108 0 -60 -20 -99 -64 -126 -29 -18 -43 -21 -86 -15 -42 6 -56 13 -81 43 -16 20 -32 46 -35 59 -11 39 6 90 40 127 30 31 39 35 85 35 29 0 65 -7 81 -15z"/>
<path d="M2046 3611 c-8 -13 -89 -51 -107 -51 -8 0 -20 -5 -26 -11 -7 -7 -20 -12 -30 -13 -35 -3 -138 -40 -146 -53 -4 -7 -21 -13 -37 -13 -16 0 -31 -4 -35 -9 -3 -5 -31 -15 -63 -21 -31 -7 -66 -16 -77 -20 -11 -5 -28 -11 -37 -14 -10 -3 -18 -13 -18 -23 0 -24 31 -103 52 -134 14 -21 19 -22 35 -11 10 6 25 15 33 18 8 3 22 9 30 14 27 16 102 50 111 50 17 0 104 43 136 68 18 13 37 21 43 17 21 -13 8 -46 -37 -94 -59 -61 -70 -75 -120 -142 -22 -30 -47 -60 -56 -68 -10 -7 -17 -19 -17 -27 0 -7 -16 -26 -35 -41 -38 -30 -44 -53 -20 -73 8 -7 15 -20 15 -30 0 -17 28 -80 36 -80 4 0 28 12 64 31 47 26 106 49 138 55 20 4 56 18 79 31 23 12 53 23 66 23 14 0 30 7 37 15 7 8 23 15 36 15 12 0 26 5 29 10 4 6 12 10 18 9 23 -3 77 14 88 27 6 8 24 14 40 14 37 0 44 14 25 51 -9 17 -18 46 -22 65 -9 47 -27 60 -62 44 -27 -12 -51 -22 -130 -55 -23 -10 -47 -24 -53 -32 -6 -7 -21 -13 -33 -13 -11 0 -41 -14 -65 -30 -86 -58 -112 -23 -38 53 56 58 97 107 127 152 14 20 42 57 63 81 20 25 37 51 37 59 0 7 7 15 15 19 9 3 15 18 15 39 0 19 -7 40 -15 47 -8 7 -15 23 -15 36 0 21 -5 24 -34 24 -19 0 -37 -4 -40 -9z"/>
<path d="M7104 3563 c-21 -32 -45 -62 -51 -66 -7 -4 -13 -15 -13 -24 0 -9 -6 -24 -14 -32 -18 -22 -36 -78 -36 -114 0 -80 54 -162 127 -192 46 -20 117 -19 133 0 7 8 17 15 22 15 12 0 60 40 129 106 53 49 91 57 127 25 17 -14 22 -30 22 -65 0 -25 -3 -46 -7 -46 -18 -1 -113 -99 -113 -116 1 -10 18 -36 39 -57 l39 -39 51 53 c28 29 51 57 51 63 1 6 14 27 30 46 17 19 30 44 30 57 0 12 5 25 10 28 6 3 10 26 10 50 0 24 -4 47 -10 50 -5 3 -10 16 -10 27 0 25 -65 108 -84 108 -8 0 -19 7 -26 15 -7 8 -24 15 -39 15 -15 0 -32 5 -39 12 -9 9 -15 9 -24 0 -7 -7 -23 -12 -36 -12 -29 0 -66 -27 -141 -102 -53 -54 -60 -58 -103 -58 -38 0 -48 4 -53 20 -15 46 8 89 78 147 37 31 34 52 -16 101 l-44 43 -39 -58z"/>
<path d="M6275 2330 c-16 -16 -34 -30 -40 -30 -7 0 -20 -10 -31 -21 -10 -12 -35 -32 -54 -45 -64 -43 -123 -85 -137 -100 -8 -8 -23 -14 -34 -14 -11 0 -19 -7 -19 -16 0 -16 83 -121 108 -137 6 -4 12 -14 12 -22 0 -7 6 -20 13 -27 7 -7 22 -29 34 -48 12 -19 33 -47 46 -61 14 -14 28 -35 31 -47 4 -12 11 -22 16 -22 5 0 11 -8 14 -17 3 -10 20 -34 37 -53 17 -19 37 -49 44 -66 18 -40 43 -61 59 -48 7 5 40 31 72 57 33 27 68 52 79 57 11 4 31 19 44 31 25 24 59 44 117 72 44 21 47 31 21 64 -13 15 -26 36 -30 46 -3 9 -16 17 -28 17 -21 0 -30 -6 -144 -101 -70 -58 -102 -61 -124 -14 -8 17 -25 40 -38 52 -12 12 -23 28 -23 36 0 17 48 56 108 86 39 20 42 25 42 61 0 26 -7 48 -23 66 l-23 27 -30 -26 c-84 -75 -127 -107 -143 -107 -9 0 -25 15 -34 33 -9 17 -27 44 -38 59 -19 23 -20 30 -9 43 7 8 20 15 30 15 9 0 25 10 36 21 10 12 30 27 44 33 66 31 100 58 100 82 0 14 -6 27 -14 30 -8 3 -19 19 -25 35 -13 37 -30 37 -66 -1z"/>
<path d="M3000 2164 c-5 -5 -29 -20 -54 -33 -45 -22 -97 -70 -119 -109 -7 -11 -27 -41 -44 -67 -18 -25 -33 -52 -33 -59 0 -7 -3 -16 -6 -19 -4 -3 -7 -50 -8 -104 l-2 -97 70 -71 c69 -69 122 -105 156 -105 9 0 25 -6 36 -14 30 -23 150 4 191 42 13 12 30 22 37 22 18 0 77 67 103 115 11 22 28 54 36 70 58 112 62 169 16 253 -33 59 -66 102 -81 102 -4 0 -31 18 -60 39 -50 38 -54 40 -141 43 -54 2 -92 -1 -97 -8z m161 -121 c60 -33 79 -61 79 -117 0 -28 -6 -62 -14 -76 -7 -14 -24 -45 -36 -70 -13 -25 -51 -73 -84 -107 -54 -57 -64 -63 -101 -63 -30 0 -50 7 -75 29 -33 27 -35 32 -35 92 0 79 34 155 103 230 42 46 106 97 124 98 3 1 21 -7 39 -16z"/>
<path d="M4610 1715 c-12 -11 -27 -12 -75 -6 -78 11 -88 3 -73 -59 16 -65 26 -73 79 -61 24 6 56 11 72 11 l27 0 0 -140 c0 -108 4 -148 16 -171 12 -24 14 -50 8 -139 l-7 -110 83 0 83 0 -6 185 c-4 102 -11 195 -17 206 -6 10 -9 56 -8 102 l3 82 85 0 85 0 3 58 3 57 -173 0 c-139 0 -177 -3 -188 -15z"/>
</g>
</svg>